D:\school\WTK\thesis\model\3dpredictsim\Results\Batchsim_tmt_linear\Pog_s1_tmt_bCst_d00_k800_ig24_act_GRF.mot
nRows=20
nColumns=19

name D:\school\WTK\thesis\model\3dpredictsim\Results\Batchsim_tmt_linear\Pog_s1_tmt_bCst_d00_k800_ig24_act_GRF.mot
datacolumns 19
datarows 20
range 0.0000000000 0.2444071308
endheader
time 	ground_force_vx	ground_force_vy	ground_force_vz	ground_force_px	ground_force_py	ground_force_pz	1_ground_force_vx	1_ground_force_vy	1_ground_force_vz	1_ground_force_px	1_ground_force_py	1_ground_force_pz	ground_torque_x	ground_torque_y	ground_torque_z	1_ground_torque_x	1_ground_torque_y	1_ground_torque_z
        0.0000000000	      -29.5438014693	       23.0916855075	        6.6050655415	        0.2099695209	        0.0000000000	        0.0513178852	      107.7193093824	      430.7884614186	        0.3099176015	       -0.3716438774	        0.0000000000	       -0.0334447106	        0.0000000000	        0.0000000000	        0.0000000000	        0.0000000000	        0.0000000000	        0.0000000000	
        0.0128635332	     -106.7714372944	      108.6506183061	       35.5600070449	        0.2180755678	        0.0000000000	        0.0495357511	       72.2061910771	      329.7734431983	       -6.2632452609	       -0.3633820253	        0.0000000000	       -0.0303847649	        0.0000000000	        0.0000000000	        0.0000000000	        0.0000000000	        0.0000000000	        0.0000000000	
        0.0257270664	      -55.7299704822	      315.4431121295	       11.2538493482	        0.2234361710	        0.0000000000	        0.0477790884	       41.2304958486	      227.7576868442	      -12.2372589689	       -0.3501964494	        0.0000000000	       -0.0249927690	        0.0000000000	        0.0000000000	        0.0000000000	        0.0000000000	        0.0000000000	        0.0000000000	
        0.0385905996	      -63.5895124426	      540.2202633986	       -7.2021459052	        0.2262336386	        0.0000000000	        0.0476190098	       27.7407330343	      182.6750891625	      -12.3399917110	       -0.3455863570	        0.0000000000	       -0.0227538619	        0.0000000000	        0.0000000000	        0.0000000000	        0.0000000000	        0.0000000000	        0.0000000000	
        0.0514541328	     -116.0042385487	      755.2835157517	      -15.2172126249	        0.2345535668	        0.0000000000	        0.0494804445	       21.4075438779	      134.0414153190	      -15.8641180383	       -0.3452500399	        0.0000000000	       -0.0231210887	        0.0000000000	        0.0000000000	        0.0000000000	        0.0000000000	        0.0000000000	        0.0000000000	
        0.0643176660	     -152.9230930643	      895.0442725660	      -20.2406955504	        0.2431541950	        0.0000000000	        0.0514940535	        8.1574840898	       75.5793373914	      -15.6086568359	       -0.3452655423	        0.0000000000	       -0.0235571276	        0.0000000000	        0.0000000000	        0.0000000000	        0.0000000000	        0.0000000000	        0.0000000000	
        0.0771811992	     -157.4317349264	      915.6733349157	      -20.8561705149	        0.2486408602	        0.0000000000	        0.0525955799	       -8.3884356487	       14.3515046622	       -3.9624791841	       -0.3493127841	        0.0000000000	       -0.0234041261	        0.0000000000	        0.0000000000	        0.0000000000	        0.0000000000	        0.0000000000	        0.0000000000	
        0.0900447324	     -139.5680642494	      874.2180577882	      -19.7719502115	        0.2526413368	        0.0000000000	        0.0532216547	        0.5222491785	       -0.4247249977	       -0.0205511814	        0.0000000000	        0.0000000000	        0.0000000000	        0.0000000000	        0.0000000000	        0.0000000000	        0.0000000000	        0.0000000000	        0.0000000000	
        0.1029082656	     -122.5795633688	      811.5651799483	      -18.6224732963	        0.2563553592	        0.0000000000	        0.0535245675	       -6.1113193599	        4.3080208475	        0.3461996553	        0.0000000000	        0.0000000000	        0.0000000000	        0.0000000000	        0.0000000000	        0.0000000000	        0.0000000000	        0.0000000000	        0.0000000000	
        0.1157717988	     -108.1112594491	      764.8752418216	      -17.6473212351	        0.2602650985	        0.0000000000	        0.0535433625	       -5.4090333739	        3.3574035915	        0.3938103423	        0.0000000000	        0.0000000000	        0.0000000000	        0.0000000000	        0.0000000000	        0.0000000000	        0.0000000000	        0.0000000000	        0.0000000000	
        0.1286353320	      -94.9799923629	      729.8765356707	      -17.6607699515	        0.2646471521	        0.0000000000	        0.0533813768	       -3.5612587165	        2.0178065485	        0.2796618532	        0.0000000000	        0.0000000000	        0.0000000000	        0.0000000000	        0.0000000000	        0.0000000000	        0.0000000000	        0.0000000000	        0.0000000000	
        0.1414988652	      -85.1376268767	      703.8465697913	      -17.9756524506	        0.2698832941	        0.0000000000	        0.0529749805	       -2.6995426751	        1.4291499444	        0.2170991833	        0.0000000000	        0.0000000000	        0.0000000000	        0.0000000000	        0.0000000000	        0.0000000000	        0.0000000000	        0.0000000000	        0.0000000000	
        0.1543623984	      -75.0731409616	      680.0495463622	      -18.6277961164	        0.2750960055	        0.0000000000	        0.0525603632	       -2.0174449249	        1.0208997178	        0.1556544868	        0.0000000000	        0.0000000000	        0.0000000000	        0.0000000000	        0.0000000000	        0.0000000000	        0.0000000000	        0.0000000000	        0.0000000000	
        0.1672259316	      -64.9710658368	      656.4532147077	      -19.6399026714	        0.2799377888	        0.0000000000	        0.0522594312	       -1.4522755986	        0.7088259798	        0.1098804764	        0.0000000000	        0.0000000000	        0.0000000000	        0.0000000000	        0.0000000000	        0.0000000000	        0.0000000000	        0.0000000000	        0.0000000000	
        0.1800894648	      -55.6434237022	      635.7325205983	      -19.8586865596	        0.2846333643	        0.0000000000	        0.0520633805	       -1.0947093867	        0.5182680050	        0.0810749781	        0.0000000000	        0.0000000000	        0.0000000000	        0.0000000000	        0.0000000000	        0.0000000000	        0.0000000000	        0.0000000000	        0.0000000000	
        0.1929529980	      -47.5490942761	      618.7151782807	      -20.4177578217	        0.2893807816	        0.0000000000	        0.0518972604	       -0.8928717150	        0.4124566342	        0.0651103104	        0.0000000000	        0.0000000000	        0.0000000000	        0.0000000000	        0.0000000000	        0.0000000000	        0.0000000000	        0.0000000000	        0.0000000000	
        0.2058165312	      -40.4426135076	      604.8268429619	      -20.2986997789	        0.2942282095	        0.0000000000	        0.0517457709	       -0.7834000618	        0.3541454365	        0.0559003004	        0.0000000000	        0.0000000000	        0.0000000000	        0.0000000000	        0.0000000000	        0.0000000000	        0.0000000000	        0.0000000000	        0.0000000000	
        0.2186800644	      -35.0015748609	      595.2495299739	      -20.1641835237	        0.2993034780	        0.0000000000	        0.0515560055	       -0.7357412710	        0.3263063934	        0.0513900532	        0.0000000000	        0.0000000000	        0.0000000000	        0.0000000000	        0.0000000000	        0.0000000000	        0.0000000000	        0.0000000000	        0.0000000000	
        0.2315435976	      -29.7432871078	      589.8004193934	      -19.7669135223	        0.3049497283	        0.0000000000	        0.0512742838	       -0.7436087894	        0.3237313444	        0.0508409890	        0.0000000000	        0.0000000000	        0.0000000000	        0.0000000000	        0.0000000000	        0.0000000000	        0.0000000000	        0.0000000000	        0.0000000000	
        0.2444071308	      -25.6921281411	      586.6442123932	      -19.2054146462	        0.3111791342	        0.0000000000	        0.0508686479	       -0.8080768719	        0.3454612423	        0.0535795860	        0.0000000000	        0.0000000000	        0.0000000000	        0.0000000000	        0.0000000000	        0.0000000000	        0.0000000000	        0.0000000000	        0.0000000000	
